{
    "asset" : {
        "generator" : "Khronos glTF Blender I/O v1.2.75",
        "version" : "2.0"
    },
    "scene" : 0,
    "scenes" : [
        {
            "name" : "Scene",
            "nodes" : [
                0,
                1,
                2,
                3,
                4,
                5,
                6,
                7,
                8,
                9,
                10,
                11,
                12,
                13
            ]
        }
    ],
    "nodes" : [
        {
            "name" : "Light",
            "rotation" : [
                0.16907575726509094,
                0.7558803558349609,
                -0.27217137813568115,
                0.570947527885437
            ],
            "translation" : [
                1.4410357475280762,
                -1.5226123332977295,
                4.490621566772461
            ]
        },
        {
            "name" : "Camera",
            "rotation" : [
                0.483536034822464,
                0.33687159419059753,
                -0.20870360732078552,
                0.7804827094078064
            ],
            "translation" : [
                7.358891487121582,
                4.958309173583984,
                6.925790786743164
            ]
        },
        {
            "mesh" : 0,
            "name" : "Suzanne"
        },
        {
            "mesh" : 1,
            "name" : "Suzanne.001",
            "translation" : [
                2.9000000953674316,
                0,
                0
            ]
        },
        {
            "mesh" : 2,
            "name" : "Text",
            "rotation" : [
                0.7071068286895752,
                0,
                0,
                0.7071067094802856
            ],
            "scale" : [
                0.2780049443244934,
                0.2780049443244934,
                0.2780049443244934
            ],
            "translation" : [
                -1.1457011699676514,
                1.125158667564392,
                0
            ]
        },
        {
            "mesh" : 3,
            "name" : "Text.001",
            "rotation" : [
                0.7071068286895752,
                0,
                0,
                0.7071067094802856
            ],
            "scale" : [
                0.2780049443244934,
                0.2780049443244934,
                0.2780049443244934
            ],
            "translation" : [
                1.9524524211883545,
                1.125158667564392,
                0
            ]
        },
        {
            "mesh" : 4,
            "name" : "Suzanne.002",
            "translation" : [
                0,
                -3.424093246459961,
                0
            ]
        },
        {
            "mesh" : 5,
            "name" : "Suzanne.003",
            "translation" : [
                2.9000000953674316,
                -3.424093246459961,
                0
            ]
        },
        {
            "mesh" : 6,
            "name" : "Text.002",
            "rotation" : [
                0.7071068286895752,
                0,
                0,
                0.7071067094802856
            ],
            "scale" : [
                0.2780049443244934,
                0.2780049443244934,
                0.2780049443244934
            ],
            "translation" : [
                -1.1457011699676514,
                -2.0471627712249756,
                0
            ]
        },
        {
            "mesh" : 7,
            "name" : "Text.003",
            "rotation" : [
                0.7071068286895752,
                0,
                0,
                0.7071067094802856
            ],
            "scale" : [
                0.2780049443244934,
                0.2780049443244934,
                0.2780049443244934
            ],
            "translation" : [
                1.9524524211883545,
                -2.0471627712249756,
                0
            ]
        },
        {
            "name" : "Text.004",
            "rotation" : [
                0.7071068286895752,
                0,
                0,
                0.7071067094802856
            ],
            "scale" : [
                0.2780049443244934,
                0.2780049443244934,
                0.2780049443244934
            ],
            "translation" : [
                -1.1457011699676514,
                1.125158667564392,
                0
            ]
        },
        {
            "name" : "Text.005",
            "rotation" : [
                0.7071068286895752,
                0,
                0,
                0.7071067094802856
            ],
            "scale" : [
                0.2780049443244934,
                0.2780049443244934,
                0.2780049443244934
            ],
            "translation" : [
                1.9524524211883545,
                1.125158667564392,
                0
            ]
        },
        {
            "name" : "Text.006",
            "rotation" : [
                0.7071068286895752,
                0,
                0,
                0.7071067094802856
            ],
            "scale" : [
                0.2780049443244934,
                0.2780049443244934,
                0.2780049443244934
            ],
            "translation" : [
                -1.1457011699676514,
                -2.0471627712249756,
                0
            ]
        },
        {
            "name" : "Text.007",
            "rotation" : [
                0.7071068286895752,
                0,
                0,
                0.7071067094802856
            ],
            "scale" : [
                0.2780049443244934,
                0.2780049443244934,
                0.2780049443244934
            ],
            "translation" : [
                1.9524524211883545,
                -2.0471627712249756,
                0
            ]
        }
    ],
    "materials" : [
        {
            "doubleSided" : true,
            "emissiveFactor" : [
                0,
                0,
                0
            ],
            "name" : "Material.001",
            "pbrMetallicRoughness" : {
                "baseColorFactor" : [
                    0.800000011920929,
                    0.800000011920929,
                    0.800000011920929,
                    1
                ],
                "metallicFactor" : 0,
                "roughnessFactor" : 0.5
            }
        },
        {
            "doubleSided" : true,
            "emissiveFactor" : [
                0,
                0,
                0
            ],
            "name" : "Material",
            "occlusionTexture" : {
                "index" : 0,
                "texCoord" : 0
            },
            "pbrMetallicRoughness" : {
                "baseColorFactor" : [
                    0.800000011920929,
                    0.800000011920929,
                    0.800000011920929,
                    1
                ],
                "metallicFactor" : 0,
                "roughnessFactor" : 0.5
            }
        },
        {
            "doubleSided" : true,
            "emissiveFactor" : [
                0,
                0.35640016198158264,
                0.9473065137863159
            ],
            "name" : "Material.002",
            "pbrMetallicRoughness" : {
                "baseColorFactor" : [
                    0.800000011920929,
                    0.800000011920929,
                    0.800000011920929,
                    1
                ],
                "metallicFactor" : 0,
                "roughnessFactor" : 0.5
            }
        },
        {
            "doubleSided" : true,
            "emissiveFactor" : [
                0,
                0.35640016198158264,
                0.9473065137863159
            ],
            "name" : "Material.003",
            "occlusionTexture" : {
                "index" : 1,
                "texCoord" : 0
            },
            "pbrMetallicRoughness" : {
                "baseColorFactor" : [
                    0.800000011920929,
                    0.800000011920929,
                    0.800000011920929,
                    1
                ],
                "metallicFactor" : 0,
                "roughnessFactor" : 0.5
            }
        }
    ],
    "meshes" : [
        {
            "name" : "Suzanne",
            "primitives" : [
                {
                    "attributes" : {
                        "POSITION" : 0,
                        "NORMAL" : 1,
                        "TEXCOORD_0" : 2
                    },
                    "indices" : 3,
                    "material" : 0
                }
            ]
        },
        {
            "name" : "Suzanne.001",
            "primitives" : [
                {
                    "attributes" : {
                        "POSITION" : 4,
                        "NORMAL" : 5,
                        "TEXCOORD_0" : 6
                    },
                    "indices" : 3,
                    "material" : 1
                }
            ]
        },
        {
            "name" : "Text",
            "primitives" : [
                {
                    "attributes" : {
                        "POSITION" : 7,
                        "NORMAL" : 8,
                        "TEXCOORD_0" : 9
                    },
                    "indices" : 10
                }
            ]
        },
        {
            "name" : "Text.001",
            "primitives" : [
                {
                    "attributes" : {
                        "POSITION" : 11,
                        "NORMAL" : 12,
                        "TEXCOORD_0" : 13
                    },
                    "indices" : 14
                }
            ]
        },
        {
            "name" : "Suzanne.002",
            "primitives" : [
                {
                    "attributes" : {
                        "POSITION" : 15,
                        "NORMAL" : 16,
                        "TEXCOORD_0" : 17
                    },
                    "indices" : 3,
                    "material" : 2
                }
            ]
        },
        {
            "name" : "Suzanne.003",
            "primitives" : [
                {
                    "attributes" : {
                        "POSITION" : 18,
                        "NORMAL" : 19,
                        "TEXCOORD_0" : 20
                    },
                    "indices" : 3,
                    "material" : 3
                }
            ]
        },
        {
            "name" : "Text.002",
            "primitives" : [
                {
                    "attributes" : {
                        "POSITION" : 21,
                        "NORMAL" : 22,
                        "TEXCOORD_0" : 23
                    },
                    "indices" : 24
                }
            ]
        },
        {
            "name" : "Text.003",
            "primitives" : [
                {
                    "attributes" : {
                        "POSITION" : 25,
                        "NORMAL" : 26,
                        "TEXCOORD_0" : 27
                    },
                    "indices" : 28
                }
            ]
        }
    ],
    "textures" : [
        {
            "source" : 0
        },
        {
            "source" : 0
        }
    ],
    "images" : [
        {
            "mimeType" : "image/png",
            "name" : "occlusion",
            "uri" : "occlusion.png"
        }
    ],
    "accessors" : [
        {
            "bufferView" : 0,
            "componentType" : 5126,
            "count" : 11091,
            "max" : [
                1.3186392784118652,
                0.9275127649307251,
                0.8207833170890808
            ],
            "min" : [
                -1.3186391592025757,
                -0.9669579863548279,
                -0.7583317160606384
            ],
            "type" : "VEC3"
        },
        {
            "bufferView" : 1,
            "componentType" : 5126,
            "count" : 11091,
            "type" : "VEC3"
        },
        {
            "bufferView" : 2,
            "componentType" : 5126,
            "count" : 11091,
            "type" : "VEC2"
        },
        {
            "bufferView" : 3,
            "componentType" : 5123,
            "count" : 47232,
            "type" : "SCALAR"
        },
        {
            "bufferView" : 4,
            "componentType" : 5126,
            "count" : 11091,
            "max" : [
                1.3186392784118652,
                0.9275127649307251,
                0.8207833170890808
            ],
            "min" : [
                -1.3186391592025757,
                -0.9669579863548279,
                -0.7583317160606384
            ],
            "type" : "VEC3"
        },
        {
            "bufferView" : 5,
            "componentType" : 5126,
            "count" : 11091,
            "type" : "VEC3"
        },
        {
            "bufferView" : 6,
            "componentType" : 5126,
            "count" : 11091,
            "type" : "VEC2"
        },
        {
            "bufferView" : 7,
            "componentType" : 5126,
            "count" : 1650,
            "max" : [
                8.679000854492188,
                0,
                0.009000000543892384
            ],
            "min" : [
                0.07400000095367432,
                0,
                -0.6820000410079956
            ],
            "type" : "VEC3"
        },
        {
            "bufferView" : 8,
            "componentType" : 5126,
            "count" : 1650,
            "type" : "VEC3"
        },
        {
            "bufferView" : 9,
            "componentType" : 5126,
            "count" : 1650,
            "type" : "VEC2"
        },
        {
            "bufferView" : 10,
            "componentType" : 5123,
            "count" : 3618,
            "type" : "SCALAR"
        },
        {
            "bufferView" : 11,
            "componentType" : 5126,
            "count" : 1497,
            "max" : [
                7.339000701904297,
                0,
                0.009000000543892384
            ],
            "min" : [
                0.04500000178813934,
                0,
                -0.6910000443458557
            ],
            "type" : "VEC3"
        },
        {
            "bufferView" : 12,
            "componentType" : 5126,
            "count" : 1497,
            "type" : "VEC3"
        },
        {
            "bufferView" : 13,
            "componentType" : 5126,
            "count" : 1497,
            "type" : "VEC2"
        },
        {
            "bufferView" : 14,
            "componentType" : 5123,
            "count" : 3306,
            "type" : "SCALAR"
        },
        {
            "bufferView" : 15,
            "componentType" : 5126,
            "count" : 11091,
            "max" : [
                1.3186392784118652,
                0.9275127649307251,
                0.8207833170890808
            ],
            "min" : [
                -1.3186391592025757,
                -0.9669579863548279,
                -0.7583317160606384
            ],
            "type" : "VEC3"
        },
        {
            "bufferView" : 16,
            "componentType" : 5126,
            "count" : 11091,
            "type" : "VEC3"
        },
        {
            "bufferView" : 17,
            "componentType" : 5126,
            "count" : 11091,
            "type" : "VEC2"
        },
        {
            "bufferView" : 18,
            "componentType" : 5126,
            "count" : 11091,
            "max" : [
                1.3186392784118652,
                0.9275127649307251,
                0.8207833170890808
            ],
            "min" : [
                -1.3186391592025757,
                -0.9669579863548279,
                -0.7583317160606384
            ],
            "type" : "VEC3"
        },
        {
            "bufferView" : 19,
            "componentType" : 5126,
            "count" : 11091,
            "type" : "VEC3"
        },
        {
            "bufferView" : 20,
            "componentType" : 5126,
            "count" : 11091,
            "type" : "VEC2"
        },
        {
            "bufferView" : 21,
            "componentType" : 5126,
            "count" : 3290,
            "max" : [
                8.679000854492188,
                0,
                1.0089999437332153
            ],
            "min" : [
                0.026000000536441803,
                0,
                -0.6820000410079956
            ],
            "type" : "VEC3"
        },
        {
            "bufferView" : 22,
            "componentType" : 5126,
            "count" : 3290,
            "type" : "VEC3"
        },
        {
            "bufferView" : 23,
            "componentType" : 5126,
            "count" : 3290,
            "type" : "VEC2"
        },
        {
            "bufferView" : 24,
            "componentType" : 5123,
            "count" : 7308,
            "type" : "SCALAR"
        },
        {
            "bufferView" : 25,
            "componentType" : 5126,
            "count" : 3137,
            "max" : [
                7.339000701904297,
                0,
                1.0089999437332153
            ],
            "min" : [
                0.026000000536441803,
                0,
                -0.6910000443458557
            ],
            "type" : "VEC3"
        },
        {
            "bufferView" : 26,
            "componentType" : 5126,
            "count" : 3137,
            "type" : "VEC3"
        },
        {
            "bufferView" : 27,
            "componentType" : 5126,
            "count" : 3137,
            "type" : "VEC2"
        },
        {
            "bufferView" : 28,
            "componentType" : 5123,
            "count" : 6996,
            "type" : "SCALAR"
        }
    ],
    "bufferViews" : [
        {
            "buffer" : 0,
            "byteLength" : 133092,
            "byteOffset" : 0
        },
        {
            "buffer" : 0,
            "byteLength" : 133092,
            "byteOffset" : 133092
        },
        {
            "buffer" : 0,
            "byteLength" : 88728,
            "byteOffset" : 266184
        },
        {
            "buffer" : 0,
            "byteLength" : 94464,
            "byteOffset" : 354912
        },
        {
            "buffer" : 0,
            "byteLength" : 133092,
            "byteOffset" : 449376
        },
        {
            "buffer" : 0,
            "byteLength" : 133092,
            "byteOffset" : 582468
        },
        {
            "buffer" : 0,
            "byteLength" : 88728,
            "byteOffset" : 715560
        },
        {
            "buffer" : 0,
            "byteLength" : 19800,
            "byteOffset" : 804288
        },
        {
            "buffer" : 0,
            "byteLength" : 19800,
            "byteOffset" : 824088
        },
        {
            "buffer" : 0,
            "byteLength" : 13200,
            "byteOffset" : 843888
        },
        {
            "buffer" : 0,
            "byteLength" : 7236,
            "byteOffset" : 857088
        },
        {
            "buffer" : 0,
            "byteLength" : 17964,
            "byteOffset" : 864324
        },
        {
            "buffer" : 0,
            "byteLength" : 17964,
            "byteOffset" : 882288
        },
        {
            "buffer" : 0,
            "byteLength" : 11976,
            "byteOffset" : 900252
        },
        {
            "buffer" : 0,
            "byteLength" : 6612,
            "byteOffset" : 912228
        },
        {
            "buffer" : 0,
            "byteLength" : 133092,
            "byteOffset" : 918840
        },
        {
            "buffer" : 0,
            "byteLength" : 133092,
            "byteOffset" : 1051932
        },
        {
            "buffer" : 0,
            "byteLength" : 88728,
            "byteOffset" : 1185024
        },
        {
            "buffer" : 0,
            "byteLength" : 133092,
            "byteOffset" : 1273752
        },
        {
            "buffer" : 0,
            "byteLength" : 133092,
            "byteOffset" : 1406844
        },
        {
            "buffer" : 0,
            "byteLength" : 88728,
            "byteOffset" : 1539936
        },
        {
            "buffer" : 0,
            "byteLength" : 39480,
            "byteOffset" : 1628664
        },
        {
            "buffer" : 0,
            "byteLength" : 39480,
            "byteOffset" : 1668144
        },
        {
            "buffer" : 0,
            "byteLength" : 26320,
            "byteOffset" : 1707624
        },
        {
            "buffer" : 0,
            "byteLength" : 14616,
            "byteOffset" : 1733944
        },
        {
            "buffer" : 0,
            "byteLength" : 37644,
            "byteOffset" : 1748560
        },
        {
            "buffer" : 0,
            "byteLength" : 37644,
            "byteOffset" : 1786204
        },
        {
            "buffer" : 0,
            "byteLength" : 25096,
            "byteOffset" : 1823848
        },
        {
            "buffer" : 0,
            "byteLength" : 13992,
            "byteOffset" : 1848944
        }
    ],
    "buffers" : [
        {
            "byteLength" : 1862936,
            "uri" : "occlusion_texture.bin"
        }
    ]
}
