{
	"asset":{
		"generator":"Khronos glTF Blender I/O v4.3.47",
		"version":"2.0"
	},
	"scene":0,
	"scenes":[
		{
			"name":"Scene",
			"nodes":[
				0,
				1,
				2,
				3
			]
		}
	],
	"nodes":[
		{
			"mesh":0,
			"name":"stonehenge"
		},
		{
			"mesh":1,
			"name":"stonehenge.001"
		},
		{
			"mesh":2,
			"name":"stonehenge.002"
		},
		{
			"mesh":3,
			"name":"stonehenge.003"
		}
	],
	"materials":[
		{
			"doubleSided":true,
			"name":"Material.001",
			"pbrMetallicRoughness":{
				"baseColorFactor":[
					0,
					0.8001017570495605,
					0.023380499333143234,
					1
				],
				"metallicFactor":0,
				"roughnessFactor":0.5
			}
		},
		{
			"doubleSided":true,
			"name":"Material.002",
			"pbrMetallicRoughness":{
				"baseColorFactor":[
					0.8004899024963379,
					0.8004899024963379,
					0.8004899024963379,
					1
				],
				"metallicFactor":0,
				"roughnessFactor":0.5
			}
		},
		{
			"doubleSided":true,
			"name":"Material.004",
			"pbrMetallicRoughness":{
				"baseColorFactor":[
					0.4567691683769226,
					0.4567691683769226,
					0.4567691683769226,
					1
				],
				"metallicFactor":0,
				"roughnessFactor":0.5
			}
		},
		{
			"doubleSided":true,
			"name":"Material.003",
			"pbrMetallicRoughness":{
				"baseColorFactor":[
					0.29452604055404663,
					0.29452604055404663,
					0.29452604055404663,
					1
				],
				"metallicFactor":0,
				"roughnessFactor":0.5
			}
		}
	],
	"meshes":[
		{
			"name":"stonehenge",
			"primitives":[
				{
					"attributes":{
						"POSITION":0,
						"NORMAL":1
					},
					"indices":2,
					"material":0
				}
			]
		},
		{
			"name":"stonehenge.001",
			"primitives":[
				{
					"attributes":{
						"POSITION":3,
						"NORMAL":4
					},
					"indices":5,
					"material":1
				}
			]
		},
		{
			"name":"stonehenge.002",
			"primitives":[
				{
					"attributes":{
						"POSITION":6,
						"NORMAL":7
					},
					"indices":8,
					"material":2
				}
			]
		},
		{
			"name":"stonehenge.003",
			"primitives":[
				{
					"attributes":{
						"POSITION":9,
						"NORMAL":10
					},
					"indices":11,
					"material":3
				}
			]
		}
	],
	"accessors":[
		{
			"bufferView":0,
			"componentType":5126,
			"count":44,
			"max":[
				37.248905181884766,
				3.000000958763849e-07,
				-3.2221519947052
			],
			"min":[
				-6.709170818328857,
				-3.000000958763849e-07,
				-53.32805252075195
			],
			"type":"VEC3"
		},
		{
			"bufferView":1,
			"componentType":5126,
			"count":44,
			"type":"VEC3"
		},
		{
			"bufferView":2,
			"componentType":5123,
			"count":126,
			"type":"SCALAR"
		},
		{
			"bufferView":3,
			"componentType":5126,
			"count":2771,
			"max":[
				36.046295166015625,
				4.388983249664307,
				-3.607714891433716
			],
			"min":[
				13.533065795898438,
				-2.0000004496978363e-07,
				-28.013202667236328
			],
			"type":"VEC3"
		},
		{
			"bufferView":4,
			"componentType":5126,
			"count":2771,
			"type":"VEC3"
		},
		{
			"bufferView":5,
			"componentType":5123,
			"count":8670,
			"type":"SCALAR"
		},
		{
			"bufferView":6,
			"componentType":5126,
			"count":1032,
			"max":[
				36.03641128540039,
				5.281073093414307,
				-8.091691970825195
			],
			"min":[
				13.69781494140625,
				4.364950180053711,
				-26.926000595092773
			],
			"type":"VEC3"
		},
		{
			"bufferView":7,
			"componentType":5126,
			"count":1032,
			"type":"VEC3"
		},
		{
			"bufferView":8,
			"componentType":5123,
			"count":3636,
			"type":"SCALAR"
		},
		{
			"bufferView":9,
			"componentType":5126,
			"count":1791,
			"max":[
				26.889434814453125,
				0.5804790258407593,
				-0.7298184037208557
			],
			"min":[
				9.128741264343262,
				-3.000000958763849e-07,
				-28.432117462158203
			],
			"type":"VEC3"
		},
		{
			"bufferView":10,
			"componentType":5126,
			"count":1791,
			"type":"VEC3"
		},
		{
			"bufferView":11,
			"componentType":5123,
			"count":5424,
			"type":"SCALAR"
		}
	],
	"bufferViews":[
		{
			"buffer":0,
			"byteLength":528,
			"byteOffset":0,
			"target":34962
		},
		{
			"buffer":0,
			"byteLength":528,
			"byteOffset":528,
			"target":34962
		},
		{
			"buffer":0,
			"byteLength":252,
			"byteOffset":1056,
			"target":34963
		},
		{
			"buffer":0,
			"byteLength":33252,
			"byteOffset":1308,
			"target":34962
		},
		{
			"buffer":0,
			"byteLength":33252,
			"byteOffset":34560,
			"target":34962
		},
		{
			"buffer":0,
			"byteLength":17340,
			"byteOffset":67812,
			"target":34963
		},
		{
			"buffer":0,
			"byteLength":12384,
			"byteOffset":85152,
			"target":34962
		},
		{
			"buffer":0,
			"byteLength":12384,
			"byteOffset":97536,
			"target":34962
		},
		{
			"buffer":0,
			"byteLength":7272,
			"byteOffset":109920,
			"target":34963
		},
		{
			"buffer":0,
			"byteLength":21492,
			"byteOffset":117192,
			"target":34962
		},
		{
			"buffer":0,
			"byteLength":21492,
			"byteOffset":138684,
			"target":34962
		},
		{
			"buffer":0,
			"byteLength":10848,
			"byteOffset":160176,
			"target":34963
		}
	],
	"buffers":[
		{
			"byteLength":171024,
			"uri":"stonehenge.bin"
		}
	]
}
