{
	"asset":{
		"generator":"Khronos glTF Blender I/O v4.2.57",
		"version":"2.0"
	},
	"scene":0,
	"scenes":[
		{
			"name":"Scene",
			"nodes":[
				0,
				1,
				2,
				3,
				4,
				5,
				6
			]
		}
	],
	"nodes":[
		{
			"camera":0,
			"name":"Camera",
			"rotation":[
				0,
				0.2731136083602905,
				0,
				0.9619817733764648
			],
			"translation":[
				9.74085521697998,
				1.734083890914917,
				12.574445724487305
			]
		},
		{
			"mesh":0,
			"name":"Plane",
			"scale":[
				20,
				20,
				20
			]
		},
		{
			"mesh":1,
			"name":"Cube",
			"scale":[
				7.399999618530273,
				2,
				2.858933448791504
			],
			"translation":[
				0,
				2,
				-10
			]
		},
		{
			"mesh":2,
			"name":"Plane.001",
			"scale":[
				8.789568901062012,
				1,
				3.8942110538482666
			],
			"translation":[
				0,
				3.8176653385162354,
				-10
			]
		},
		{
			"mesh":3,
			"name":"Cube.001",
			"translation":[
				-12,
				0,
				0
			]
		},
		{
			"mesh":4,
			"name":"Cylinder",
			"scale":[
				2.4351987838745117,
				1,
				2.4351987838745117
			],
			"translation":[
				0.23630587756633759,
				0,
				5.860386371612549
			]
		},
		{
			"mesh":5,
			"name":"monkey",
			"translation":[
				0.225016787648201,
				3.14701509475708,
				5.937147617340088
			]
		}
	],
	"cameras":[
		{
			"name":"Camera",
			"perspective":{
				"aspectRatio":1.7777777777777777,
				"yfov":0.39959652046304894,
				"zfar":100,
				"znear":0.10000000149011612
			},
			"type":"perspective"
		}
	],
	"materials":[
		{
			"doubleSided":true,
			"name":"mat_floor",
			"pbrMetallicRoughness":{
				"baseColorTexture":{
					"index":0
				},
				"metallicFactor":0,
				"roughnessFactor":0.5
			}
		},
		{
			"doubleSided":true,
			"name":"mat_house",
			"pbrMetallicRoughness":{
				"baseColorTexture":{
					"index":1
				},
				"metallicFactor":0,
				"roughnessFactor":0.5
			}
		},
		{
			"doubleSided":true,
			"name":"mat_low_wall",
			"pbrMetallicRoughness":{
				"baseColorTexture":{
					"index":2
				},
				"metallicFactor":0,
				"roughnessFactor":0.5
			}
		},
		{
			"doubleSided":true,
			"name":"mat_statue",
			"pbrMetallicRoughness":{
				"metallicFactor":0,
				"roughnessFactor":0.5
			}
		}
	],
	"meshes":[
		{
			"name":"Plane",
			"primitives":[
				{
					"attributes":{
						"POSITION":0,
						"NORMAL":1,
						"TEXCOORD_0":2
					},
					"indices":3,
					"material":0
				}
			]
		},
		{
			"name":"Cube.001",
			"primitives":[
				{
					"attributes":{
						"POSITION":4,
						"NORMAL":5,
						"TEXCOORD_0":6
					},
					"indices":7,
					"material":1
				}
			]
		},
		{
			"name":"Plane.001",
			"primitives":[
				{
					"attributes":{
						"POSITION":8,
						"NORMAL":9,
						"TEXCOORD_0":10
					},
					"indices":11,
					"material":1
				}
			]
		},
		{
			"name":"Cube.002",
			"primitives":[
				{
					"attributes":{
						"POSITION":12,
						"NORMAL":13,
						"TEXCOORD_0":14
					},
					"indices":15,
					"material":2
				}
			]
		},
		{
			"name":"Cylinder.001",
			"primitives":[
				{
					"attributes":{
						"POSITION":16,
						"NORMAL":17,
						"TEXCOORD_0":18
					},
					"indices":19,
					"material":3
				}
			]
		},
		{
			"name":"Suzanne",
			"primitives":[
				{
					"attributes":{
						"POSITION":20,
						"NORMAL":21,
						"TEXCOORD_0":22
					},
					"indices":23,
					"material":3
				}
			]
		}
	],
	"textures":[
		{
			"sampler":0,
			"source":0
		},
		{
			"sampler":0,
			"source":1
		},
		{
			"sampler":0,
			"source":2
		}
	],
	"images":[
		{
			"mimeType":"image/png",
			"name":"Brick_01.png",
			"uri":"textures/Tileable%20Brick%20Ground%20Textures%20-%20Set%202/Brick_01.png"
		},
		{
			"mimeType":"image/png",
			"name":"Brick_02.png",
			"uri":"textures/Tileable%20Brick%20Ground%20Textures%20-%20Set%202/Brick_02.png"
		},
		{
			"mimeType":"image/png",
			"name":"Brick_03.png",
			"uri":"textures/Tileable%20Brick%20Ground%20Textures%20-%20Set%202/Brick_03.png"
		}
	],
	"accessors":[
		{
			"bufferView":0,
			"componentType":5126,
			"count":8,
			"max":[
				1,
				0,
				1
			],
			"min":[
				-1,
				0,
				-1
			],
			"type":"VEC3"
		},
		{
			"bufferView":1,
			"componentType":5126,
			"count":8,
			"type":"VEC3"
		},
		{
			"bufferView":2,
			"componentType":5126,
			"count":8,
			"type":"VEC2"
		},
		{
			"bufferView":3,
			"componentType":5123,
			"count":30,
			"type":"SCALAR"
		},
		{
			"bufferView":4,
			"componentType":5126,
			"count":24,
			"max":[
				1,
				1,
				1
			],
			"min":[
				-1,
				-1,
				-1
			],
			"type":"VEC3"
		},
		{
			"bufferView":5,
			"componentType":5126,
			"count":24,
			"type":"VEC3"
		},
		{
			"bufferView":6,
			"componentType":5126,
			"count":24,
			"type":"VEC2"
		},
		{
			"bufferView":7,
			"componentType":5123,
			"count":36,
			"type":"SCALAR"
		},
		{
			"bufferView":8,
			"componentType":5126,
			"count":18,
			"max":[
				1,
				2.8205461502075195,
				1
			],
			"min":[
				-1,
				0,
				-1
			],
			"type":"VEC3"
		},
		{
			"bufferView":9,
			"componentType":5126,
			"count":18,
			"type":"VEC3"
		},
		{
			"bufferView":10,
			"componentType":5126,
			"count":18,
			"type":"VEC2"
		},
		{
			"bufferView":11,
			"componentType":5123,
			"count":24,
			"type":"SCALAR"
		},
		{
			"bufferView":12,
			"componentType":5126,
			"count":64,
			"max":[
				24.558605194091797,
				1,
				15
			],
			"min":[
				-1,
				-1,
				-1
			],
			"type":"VEC3"
		},
		{
			"bufferView":13,
			"componentType":5126,
			"count":64,
			"type":"VEC3"
		},
		{
			"bufferView":14,
			"componentType":5126,
			"count":64,
			"type":"VEC2"
		},
		{
			"bufferView":15,
			"componentType":5123,
			"count":132,
			"type":"SCALAR"
		},
		{
			"bufferView":16,
			"componentType":5126,
			"count":262,
			"max":[
				1,
				3.0193610191345215,
				1
			],
			"min":[
				-1,
				-1,
				-1
			],
			"type":"VEC3"
		},
		{
			"bufferView":17,
			"componentType":5126,
			"count":262,
			"type":"VEC3"
		},
		{
			"bufferView":18,
			"componentType":5126,
			"count":262,
			"type":"VEC2"
		},
		{
			"bufferView":19,
			"componentType":5123,
			"count":756,
			"type":"SCALAR"
		},
		{
			"bufferView":20,
			"componentType":5126,
			"count":3312,
			"max":[
				1.325934886932373,
				0.9392362236976624,
				0.8223199844360352
			],
			"min":[
				-1.325934886932373,
				-0.9704862236976624,
				-0.7782661318778992
			],
			"type":"VEC3"
		},
		{
			"bufferView":21,
			"componentType":5126,
			"count":3312,
			"type":"VEC3"
		},
		{
			"bufferView":22,
			"componentType":5126,
			"count":3312,
			"type":"VEC2"
		},
		{
			"bufferView":23,
			"componentType":5123,
			"count":11808,
			"type":"SCALAR"
		}
	],
	"bufferViews":[
		{
			"buffer":0,
			"byteLength":96,
			"byteOffset":0,
			"target":34962
		},
		{
			"buffer":0,
			"byteLength":96,
			"byteOffset":96,
			"target":34962
		},
		{
			"buffer":0,
			"byteLength":64,
			"byteOffset":192,
			"target":34962
		},
		{
			"buffer":0,
			"byteLength":60,
			"byteOffset":256,
			"target":34963
		},
		{
			"buffer":0,
			"byteLength":288,
			"byteOffset":316,
			"target":34962
		},
		{
			"buffer":0,
			"byteLength":288,
			"byteOffset":604,
			"target":34962
		},
		{
			"buffer":0,
			"byteLength":192,
			"byteOffset":892,
			"target":34962
		},
		{
			"buffer":0,
			"byteLength":72,
			"byteOffset":1084,
			"target":34963
		},
		{
			"buffer":0,
			"byteLength":216,
			"byteOffset":1156,
			"target":34962
		},
		{
			"buffer":0,
			"byteLength":216,
			"byteOffset":1372,
			"target":34962
		},
		{
			"buffer":0,
			"byteLength":144,
			"byteOffset":1588,
			"target":34962
		},
		{
			"buffer":0,
			"byteLength":48,
			"byteOffset":1732,
			"target":34963
		},
		{
			"buffer":0,
			"byteLength":768,
			"byteOffset":1780,
			"target":34962
		},
		{
			"buffer":0,
			"byteLength":768,
			"byteOffset":2548,
			"target":34962
		},
		{
			"buffer":0,
			"byteLength":512,
			"byteOffset":3316,
			"target":34962
		},
		{
			"buffer":0,
			"byteLength":264,
			"byteOffset":3828,
			"target":34963
		},
		{
			"buffer":0,
			"byteLength":3144,
			"byteOffset":4092,
			"target":34962
		},
		{
			"buffer":0,
			"byteLength":3144,
			"byteOffset":7236,
			"target":34962
		},
		{
			"buffer":0,
			"byteLength":2096,
			"byteOffset":10380,
			"target":34962
		},
		{
			"buffer":0,
			"byteLength":1512,
			"byteOffset":12476,
			"target":34963
		},
		{
			"buffer":0,
			"byteLength":39744,
			"byteOffset":13988,
			"target":34962
		},
		{
			"buffer":0,
			"byteLength":39744,
			"byteOffset":53732,
			"target":34962
		},
		{
			"buffer":0,
			"byteLength":26496,
			"byteOffset":93476,
			"target":34962
		},
		{
			"buffer":0,
			"byteLength":23616,
			"byteOffset":119972,
			"target":34963
		}
	],
	"samplers":[
		{
			"magFilter":9729,
			"minFilter":9987
		}
	],
	"buffers":[
		{
			"byteLength":143588,
			"uri":"sample_level.bin"
		}
	]
}
