{
	"asset":{
		"generator":"Khronos glTF Blender I/O v4.2.57",
		"version":"2.0"
	},
	"extensionsUsed":[
		"KHR_materials_unlit"
	],
	"scene":0,
	"scenes":[
		{
			"name":"Scene",
			"nodes":[
				0,
				1
			]
		}
	],
	"nodes":[
		{
			"camera":0,
			"name":"Camera",
			"rotation":[
				0,
				0.2731136083602905,
				0,
				0.9619817733764648
			],
			"translation":[
				9.74085521697998,
				1.734083890914917,
				12.574445724487305
			]
		},
		{
			"mesh":0,
			"name":"Plane.001",
			"scale":[
				8.789568901062012,
				1,
				3.8942110538482666
			],
			"translation":[
				0,
				3.8176653385162354,
				-10
			]
		}
	],
	"cameras":[
		{
			"name":"Camera",
			"perspective":{
				"aspectRatio":1.7777777777777777,
				"yfov":0.39959652046304894,
				"zfar":100,
				"znear":0.10000000149011612
			},
			"type":"perspective"
		}
	],
	"materials":[
		{
			"doubleSided":true,
			"extensions":{
				"KHR_materials_unlit":{}
			},
			"name":"mat_baked",
			"pbrMetallicRoughness":{
				"baseColorTexture":{
					"index":0,
					"texCoord":1
				},
				"metallicFactor":0,
				"roughnessFactor":0.9
			}
		}
	],
	"meshes":[
		{
			"name":"Plane.001",
			"primitives":[
				{
					"attributes":{
						"POSITION":0,
						"NORMAL":1,
						"TEXCOORD_0":2,
						"TEXCOORD_1":3
					},
					"indices":4,
					"material":0
				}
			]
		}
	],
	"textures":[
		{
			"sampler":0,
			"source":0
		}
	],
	"images":[
		{
			"mimeType":"image/png",
			"name":"baked",
			"uri":"textures/baked.png"
		}
	],
	"accessors":[
		{
			"bufferView":0,
			"componentType":5126,
			"count":3267,
			"max":[
				2.2754244804382324,
				2.8205461502075195,
				7.7037434577941895
			],
			"min":[
				-2.2754244804382324,
				-4.8176655769348145,
				-2.5679144859313965
			],
			"type":"VEC3"
		},
		{
			"bufferView":1,
			"componentType":5126,
			"count":3267,
			"type":"VEC3"
		},
		{
			"bufferView":2,
			"componentType":5126,
			"count":3267,
			"type":"VEC2"
		},
		{
			"bufferView":3,
			"componentType":5126,
			"count":3267,
			"type":"VEC2"
		},
		{
			"bufferView":4,
			"componentType":5123,
			"count":12786,
			"type":"SCALAR"
		}
	],
	"bufferViews":[
		{
			"buffer":0,
			"byteLength":39204,
			"byteOffset":0,
			"target":34962
		},
		{
			"buffer":0,
			"byteLength":39204,
			"byteOffset":39204,
			"target":34962
		},
		{
			"buffer":0,
			"byteLength":26136,
			"byteOffset":78408,
			"target":34962
		},
		{
			"buffer":0,
			"byteLength":26136,
			"byteOffset":104544,
			"target":34962
		},
		{
			"buffer":0,
			"byteLength":25572,
			"byteOffset":130680,
			"target":34963
		}
	],
	"samplers":[
		{
			"magFilter":9729,
			"minFilter":9987
		}
	],
	"buffers":[
		{
			"byteLength":156252,
			"uri":"sample_level_using_baked_texture.bin"
		}
	]
}
